<?xml version="1.0" encoding="utf-8"?>
<!-- Svg Vector Icons : http://www.onlinewebfonts.com/icon -->
<!DOCTYPE svg PUBLIC "-//W3C//DTD SVG 1.1//EN" "http://www.w3.org/Graphics/SVG/1.1/DTD/svg11.dtd">
<svg version="1.1" xmlns="http://www.w3.org/2000/svg" xmlns:xlink="http://www.w3.org/1999/xlink" x="0px" y="0px" viewBox="0 0 1000 1000" enable-background="new 0 0 1000 1000" xml:space="preserve">
<metadata> Svg Vector Icons : http://www.onlinewebfonts.com/icon </metadata>
<g><path d="M598,108.1c13.8,0,25.4,4.7,34.8,14.1l343,343c9.4,9.4,14.1,21,14.1,34.8c0,13.8-4.7,25.4-14.1,34.8l-343,343c-9.4,9.4-21,14.1-34.8,14.1c-14,0-25.7-4.7-35-14c-9.3-9.3-14-21-14-35c0-13.8,4.7-25.4,14.1-34.8L822.7,549H59c-13.5,0-25.1-4.8-34.7-14.4C14.8,525.1,10,513.5,10,500c0-13.5,4.8-25.1,14.4-34.7C33.9,455.8,45.5,451,59,451h763.7L563.2,191.8c-9.4-9.4-14.1-21-14.1-34.8c0-14,4.7-25.7,14-35C572.3,112.6,584,108,598,108.1L598,108.1z"/></g>
</svg>